<?xml version="1.0" encoding="UTF-8" standalone="no"?>
<!-- Created with Inkscape (http://www.inkscape.org/) -->

<svg
   xmlns:osb="http://www.openswatchbook.org/uri/2009/osb"
   xmlns:dc="http://purl.org/dc/elements/1.1/"
   xmlns:cc="http://creativecommons.org/ns#"
   xmlns:rdf="http://www.w3.org/1999/02/22-rdf-syntax-ns#"
   xmlns:svg="http://www.w3.org/2000/svg"
   xmlns="http://www.w3.org/2000/svg"
   xmlns:xlink="http://www.w3.org/1999/xlink"
   xmlns:sodipodi="http://sodipodi.sourceforge.net/DTD/sodipodi-0.dtd"
   xmlns:inkscape="http://www.inkscape.org/namespaces/inkscape"
   width="744.09448819"
   height="1052.3622047"
   id="svg2985"
   version="1.1"
   inkscape:version="0.48.4 r9939"
   inkscape:export-filename="/home/benjamin/Projects/LittleToe/Kiosk/images/espresso_glass-half.png"
   inkscape:export-xdpi="17.309999"
   inkscape:export-ydpi="17.309999"
   sodipodi:docname="New document 2">
  <defs
     id="defs2987">
    <linearGradient
       id="linearGradient5243">
      <stop
         id="stop5251"
         offset="0"
         style="stop-color:#000000;stop-opacity:0.49803922;" />
      <stop
         style="stop-color:#000000;stop-opacity:0;"
         offset="1"
         id="stop5247" />
    </linearGradient>
    <linearGradient
       id="linearGradient5233"
       osb:paint="solid">
      <stop
         style="stop-color:#000000;stop-opacity:1;"
         offset="0"
         id="stop5235" />
    </linearGradient>
    <linearGradient
       inkscape:collect="always"
       xlink:href="#linearGradient5243"
       id="linearGradient5249"
       x1="-753.31873"
       y1="470.74377"
       x2="25.094831"
       y2="470.74377"
       gradientUnits="userSpaceOnUse" />
    <linearGradient
       inkscape:collect="always"
       xlink:href="#linearGradient5243"
       id="linearGradient5259"
       x1="-695.00433"
       y1="-185.89737"
       x2="90.960663"
       y2="-185.89737"
       gradientUnits="userSpaceOnUse" />
    <linearGradient
       inkscape:collect="always"
       xlink:href="#linearGradient5243"
       id="linearGradient5267"
       x1="-571.76416"
       y1="501.51822"
       x2="22.388838"
       y2="501.51822"
       gradientUnits="userSpaceOnUse" />
    <linearGradient
       inkscape:collect="always"
       xlink:href="#linearGradient5243"
       id="linearGradient5275"
       x1="-571.76416"
       y1="501.51822"
       x2="22.388838"
       y2="501.51822"
       gradientUnits="userSpaceOnUse" />
    <linearGradient
       inkscape:collect="always"
       xlink:href="#linearGradient5243"
       id="linearGradient5283"
       x1="-695.00433"
       y1="-185.89737"
       x2="90.960663"
       y2="-185.89737"
       gradientUnits="userSpaceOnUse" />
  </defs>
  <sodipodi:namedview
     id="base"
     pagecolor="#ffffff"
     bordercolor="#ffffff"
     borderopacity="0.0"
     inkscape:pageopacity="0.0"
     inkscape:pageshadow="0"
     inkscape:zoom="0.35"
     inkscape:cx="350"
     inkscape:cy="520"
     inkscape:document-units="px"
     inkscape:current-layer="layer1"
     showgrid="false"
     inkscape:window-width="1847"
     inkscape:window-height="1053"
     inkscape:window-x="73"
     inkscape:window-y="27"
     inkscape:window-maximized="1" />
  <metadata
     id="metadata2990">
    <rdf:RDF>
      <cc:Work
         rdf:about="">
        <dc:format>image/svg+xml</dc:format>
        <dc:type
           rdf:resource="http://purl.org/dc/dcmitype/StillImage" />
        <dc:title></dc:title>
      </cc:Work>
    </rdf:RDF>
  </metadata>
  <g
     inkscape:label="Layer 1"
     inkscape:groupmode="layer"
     id="layer1">
    <path
       style="fill:url(#linearGradient5249);fill-opacity:1.0;fill-rule:nonzero;stroke:#000000;stroke-width:0.05000000000000000;stroke-linecap:round;stroke-linejoin:round;stroke-miterlimit:4;stroke-opacity:1;stroke-dasharray:none;stroke-dashoffset:0"
       id="path3771"
       d="m -715.38577,-200.58976 c -0.24173,7.99451 -0.14819,15.995 -0.10663,23.99188 0.0374,6.28705 0.055,12.57418 0.0642,18.86132 0.006,5.71484 0.006,11.42969 0.006,17.14453 -2.4e-4,5.70537 -5e-4,11.41074 -6.4e-4,17.11611 -0.48324,5.14111 0.67486,10.06895 1.58199,15.07679 0.47897,4.96168 1.21153,9.797268 2.34554,14.647651 0.95818,4.972062 2.38158,9.832081 4.24702,14.533771 1.7816,4.804628 3.51396,9.61612 5.58613,14.302625 1.63997,4.136925 3.62976,8.130324 5.68518,12.076852 1.77998,3.865875 3.72319,7.652938 5.71207,11.418887 1.79236,3.860543 3.7287,7.650267 5.71481,11.418149 1.79073,3.864478 3.72744,7.657381 5.71435,11.428065 1.79044,3.86481 3.72728,7.657872 5.71428,11.4287024 1.42817,4.0048398 4.20744,7.23592549 6.18912,10.9379909 2.3968,3.3196658 3.78057,7.2060997 6.268,10.4624657 2.56771,3.964538 5.51717,7.672871 7.77606,11.825086 2.41542,3.506045 4.58808,7.157142 6.99139,10.66549 2.36874,3.426022 4.67337,6.874562 6.84221,10.444067 1.98815,3.787635 3.93642,7.583796 5.94048,11.366246 2.41615,3.417019 4.70594,6.989566 6.5051,10.775845 1.51177,4.093596 3.18073,8.123552 5.06267,12.060284 1.93722,4.540526 3.60397,9.169866 5.60983,13.678714 1.99655,4.140809 3.52528,8.461349 5.28147,12.701379 2.10107,4.52563 2.83315,9.48291 4.08341,14.27478 1.01961,5.22158 2.1368,10.36755 3.50353,15.50906 1.46225,5.05616 1.28933,10.35555 2.06528,15.50861 1.34425,4.71232 1.59736,9.6309 2.58138,14.40254 1.56958,4.63129 1.8471,9.53089 2.85187,14.27371 1.5022,4.86269 2.22658,9.87193 2.64989,14.92718 1.02108,4.79341 2.07728,9.54628 2.63708,14.42309 1.26267,4.48287 1.88015,9.128 3.04688,13.62557 1.11431,4.43185 2.56423,8.72632 3.97552,13.06653 1.38016,4.26482 2.61583,8.61907 4.15934,12.83036 1.86334,4.29224 2.51119,8.92597 3.92789,13.3591 1.6561,4.99518 2.11654,10.23676 2.41767,15.45593 0.24104,5.6856 0.21892,11.37807 0.2172,17.06752 -0.008,5.722 -0.018,11.44399 -0.023,17.16599 0.56381,5.68144 1.66262,11.28454 2.24254,16.96957 0.51235,5.75427 0.57101,11.53469 0.61603,17.30744 0.0248,5.71866 0.0102,11.4374 0.004,17.15609 -0.20361,5.01198 1.22811,9.87234 1.95234,14.79663 0.71146,5.50741 0.8047,11.06699 0.88114,16.61174 0.0831,5.34668 -0.28634,10.67537 0.68343,15.95406 1.18582,5.11933 1.67445,10.34286 1.96598,15.57713 0.24349,5.67552 0.2358,11.35781 0.24129,17.03737 -0.002,5.72039 -0.0107,11.44077 -0.0151,17.16115 -0.004,5.71524 -0.004,11.43048 -0.005,17.14573 -2.1e-4,5.71425 -10e-5,11.4285 -6e-5,17.14275 5e-5,5.71427 6e-5,11.42854 7e-5,17.14281 1e-5,5.71428 1e-5,11.42857 1e-5,17.14285 0,5.71429 0,11.42857 0,17.14286 0,5.71429 0,11.42857 0,17.14286 0,5.71428 0,11.42857 0,17.14285 0,5.71429 0,11.42858 0,17.14286 0,5.71429 0,11.42857 0,17.14286 0,5.71428 0,11.42857 0,17.14286 0,5.71428 0,11.42857 0,17.14285 0,5.71429 0,11.42857 0,17.14286 0,5.71429 0,11.42857 0,17.14286 0,5.71428 0,11.42857 0,17.14285 0,5.71429 0,11.42858 0,17.14286 0,5.71429 0,11.42857 0,17.14286 0,5.71428 0,11.42857 0,17.14286 0,5.71428 0,11.42857 0,17.14285 0,5.71429 0,11.42857 0,17.14286 0,5.71429 0,11.42857 0,17.14286 0,5.71428 0,11.42857 0,17.14285 0,5.71429 0,11.42858 0,17.14286 0,5.71429 0,11.42857 0,17.14286 0,5.71428 0,11.42857 0,17.14286 0,5.71428 0,11.42857 0,17.14285 0,5.71429 0,11.42857 0,17.14286 0.72082,4.64199 1.32128,9.37829 2.46153,13.94174 0.92097,4.42394 3.04761,8.33534 5.04021,12.33477 2.49745,4.51534 4.89549,9.10602 7.61823,13.4891 2.26593,3.82523 3.99237,7.94653 6.17993,11.80909 2.10436,3.5455 4.37347,6.98994 6.50087,10.53628 1.60904,3.93682 4.40615,7.15325 6.40625,10.86332 2.34587,3.31094 4.42867,6.77796 6.73458,10.11122 2.09205,3.31082 4.5494,6.4853 7.4154,9.16759 3.11015,3.5766 5.51556,7.5855 9.20701,10.6184 3.55789,3.0198 6.86397,6.3435 10.46793,9.3062 3.00307,2.8101 5.72015,5.9347 8.82233,8.6365 2.84036,3.2283 6.09305,6.0204 9.29728,8.8862 4.01589,3.0527 8.1008,6.1022 11.67742,9.6728 3.18663,2.7721 6.07442,5.8251 9.26561,8.6035 3.87807,2.3227 6.88901,5.8048 10.89343,7.9094 3.68987,2.3898 6.95861,5.3451 10.75154,7.5878 3.48582,3.0061 7.43083,5.3292 11.10113,8.0513 4.04332,2.2478 7.62266,5.235 11.83082,7.1704 3.73361,2.2241 7.52114,4.5704 11.608,6.0997 3.74586,1.9912 7.43427,4.2356 11.428,5.7067 4.38348,1.3677 8.59631,3.305 12.91771,4.9177 5.23239,2.1726 10.80828,3.2565 16.16368,5.0264 5.42341,1.612 10.95386,2.31 16.36341,3.9438 4.86146,1.095 9.68448,1.5725 14.47373,2.9581 4.82084,1.3002 9.82654,1.5087 14.78848,1.6823 5.62617,0.1364 11.25468,0.1113 16.88204,0.1039 5.72084,-0.011 11.44168,-0.017 17.16252,-0.021 5.71605,-0 11.43209,-0 17.14814,-0 5.71429,0 11.42859,10e-5 17.14288,2e-4 5.71426,0 11.42852,0 17.14278,0 5.71428,0 11.42857,0 17.14285,0 5.71429,0 11.42857,0 17.14286,0 5.71429,0 11.42857,0 17.14286,0 5.71428,0 11.42857,0 17.14285,0 5.71429,0 11.42858,0 17.14286,0 5.71429,0 11.42857,0 17.14286,0 5.71428,0 11.42857,0 17.14286,0 5.71428,0 11.428567,0 17.142853,0 5.714286,0 11.428571,0 17.142857,0 5.714286,0 11.428571,0 17.142857,0 5.714286,0 11.428572,0 17.142857,0 5.714286,0 11.428572,0 17.142857,0 5.714286,0 11.428572,0 17.1428576,0 5.71428567,0 11.4285714,0 17.1428574,0 4.735077,0.1123 9.47953,-0.4016 14.133996,0.5576 0,0 -34.6335651,24.455 -34.6335651,24.455 l 0,0 c -4.5799319,-0.2481 -9.1688139,-0.076 -13.7539059,-0.126 -5.714285,0 -11.428571,0 -17.142857,0 -5.714285,0 -11.428571,0 -17.142857,0 -5.714286,0 -11.428571,0 -17.142857,0 -5.714286,0 -11.428571,0 -17.142857,0 -5.714286,0 -11.428573,0 -17.142853,0 -5.71429,0 -11.42858,0 -17.14286,0 -5.71429,0 -11.42857,0 -17.14286,0 -5.71428,0 -11.42857,0 -17.14286,0 -5.71428,0 -11.42857,0 -17.14285,0 -5.71429,0 -11.42857,0 -17.14286,0 -5.71429,0 -11.42857,0 -17.14286,0 -5.71428,0 -11.42857,0 -17.14285,0 -5.71429,0 -11.42858,0 -17.14286,0 -5.71429,0 -11.42857,0 -17.14286,0 -5.71426,0 -11.42853,0 -17.1428,0 -5.71424,-10e-5 -11.42849,-2e-4 -17.14273,0 -5.71535,4e-4 -11.4307,8e-4 -17.14605,0.01 -5.72125,0.01 -11.44249,0.015 -17.16374,0.02 -5.67559,-0 -11.35474,0.011 -17.02535,-0.2603 -5.18927,-0.3296 -10.37122,-0.8743 -15.37099,-2.3877 -4.7933,-1.2063 -9.79033,-1.425 -14.49565,-3.0411 -5.39696,-1.514 -11.01252,-2.1301 -16.31575,-4.024 -5.54828,-1.5051 -11.00611,-3.2261 -16.39333,-5.2427 -4.33986,-1.7013 -8.68925,-3.3736 -13.05794,-4.9971 -3.85957,-1.817 -7.62251,-3.8363 -11.44232,-5.7346 -4.01038,-1.9323 -7.91417,-4.0976 -11.74362,-6.365 -4.16748,-2.3633 -8.11856,-5.1052 -12.18434,-7.6392 -3.75178,-2.4979 -7.2604,-5.2816 -10.93758,-7.8875 -3.64215,-2.4137 -7.03805,-5.1648 -10.73593,-7.4976 -3.92384,-2.617 -7.40136,-5.8415 -11.27888,-8.5344 -3.25069,-2.8083 -6.17036,-5.9586 -9.39114,-8.8002 -3.64055,-3.4012 -7.5763,-6.4688 -11.51005,-9.5205 -3.29963,-2.8161 -6.48384,-5.7388 -9.44036,-8.918 -2.93984,-2.8167 -5.77261,-5.7421 -8.73397,-8.5372 -3.4752,-3.1225 -6.93218,-6.2639 -10.41426,-9.3779 -3.55735,-3.2801 -6.24609,-7.1831 -9.43807,-10.7904 -2.90766,-3.0317 -5.63992,-6.2805 -7.83061,-9.8725 -2.33085,-3.492 -4.61683,-6.9952 -6.94544,-10.4934 -1.95469,-3.6466 -4.76551,-6.79668 -6.30842,-10.68236 -2.15944,-3.57501 -4.44755,-7.05765 -6.55979,-10.65053 -2.13803,-3.83551 -3.87835,-7.88856 -6.06354,-11.70267 -2.7106,-4.52837 -5.15471,-9.21576 -7.7748,-13.79985 -2.14247,-4.23771 -4.4853,-8.35815 -5.47615,-13.06164 -1.41044,-4.87373 -1.78488,-10.02754 -2.90067,-14.98177 0,-5.71429 0,-11.42858 0,-17.14286 0,-5.71429 0,-11.42857 0,-17.14286 0,-5.71428 0,-11.42857 0,-17.14286 0,-5.71428 0,-11.42857 0,-17.14285 0,-5.71429 0,-11.42857 0,-17.14286 0,-5.71429 0,-11.42857 0,-17.14286 0,-5.71428 0,-11.42857 0,-17.14285 0,-5.71429 0,-11.42858 0,-17.14286 0,-5.71429 0,-11.42857 0,-17.14286 0,-5.71428 0,-11.42857 0,-17.14286 0,-5.71428 0,-11.42857 0,-17.14285 0,-5.71429 0,-11.42857 0,-17.14286 0,-5.71429 0,-11.42857 0,-17.14286 0,-5.71428 0,-11.42857 0,-17.14285 0,-5.71429 0,-11.42858 0,-17.14286 0,-5.71429 0,-11.42857 0,-17.14286 0,-5.71428 0,-11.42857 0,-17.14286 0,-5.71428 0,-11.42857 0,-17.14285 0,-5.71429 0,-11.42857 0,-17.14286 0,-5.71429 0,-11.42857 0,-17.14286 0,-5.71428 0,-11.42857 0,-17.14285 0,-5.71429 0,-11.42858 0,-17.14286 0,-5.71429 0,-11.42857 -1e-5,-17.14285 0,-5.71426 -10e-6,-11.42852 -6e-5,-17.14278 -4e-5,-5.71433 -1.4e-4,-11.42866 -2e-5,-17.143 2.3e-4,-5.71612 4.8e-4,-11.43225 0.004,-17.14838 0.004,-5.71883 0.011,-11.43766 0.0168,-17.15649 4.1e-4,-5.61356 0.0157,-11.22885 -0.16689,-16.84016 -0.22167,-5.03941 -0.57204,-10.08636 -1.72937,-15.01326 -1.14569,-5.52698 -1.07676,-11.03656 -0.97799,-16.67044 -0.0506,-5.37462 -0.0967,-10.76192 -0.68094,-16.11091 -0.67135,-5.13112 -2.23869,-10.1576 -2.17174,-15.34808 0.006,-5.70982 0.0189,-11.41965 0.01,-17.12948 -0.0233,-5.66113 -0.0419,-11.32829 -0.44354,-16.97808 -0.49955,-5.82243 -1.46834,-11.56372 -2.42766,-17.32464 0.004,-5.72191 0.0119,-11.44382 0.0231,-17.16572 0.007,-5.62057 0.0337,-11.2429 -0.13949,-16.86151 -0.21369,-4.86156 -0.48881,-9.76886 -1.97028,-14.44184 -1.41897,-4.37239 -2.10495,-8.89488 -3.83257,-13.16616 -1.65079,-4.24346 -2.79655,-8.73048 -4.26056,-13.03544 -1.3726,-4.40687 -2.96647,-8.70438 -4.04091,-13.20276 -1.3864,-4.67762 -1.75972,-9.6253 -3.33669,-14.27658 -0.47339,-4.93241 -1.43398,-9.74653 -2.68498,-14.5407 -0.32482,-4.8477 -0.87587,-9.67597 -2.38797,-14.32063 -1.19494,-4.70828 -1.19686,-9.66864 -2.86032,-14.29142 -1.19728,-4.79917 -1.18764,-9.83844 -2.66974,-14.60013 -0.99744,-5.0193 -0.60056,-10.22232 -1.90832,-15.21169 -1.31068,-5.1577 -2.60639,-10.25517 -3.45251,-15.51595 -1.23333,-4.59396 -1.99597,-9.32443 -3.87832,-13.71042 -1.79062,-4.1942 -3.18448,-8.55463 -5.20949,-12.65642 -1.96735,-4.48052 -3.66692,-9.04684 -5.5939,-13.54433 -1.88319,-3.946453 -3.6212,-7.96434 -5.07644,-12.086535 -1.72997,-3.747359 -4.11616,-7.174509 -6.40886,-10.593971 -1.96264,-3.707852 -3.87291,-7.426047 -5.81738,-11.13935 -2.1493,-3.507484 -4.42033,-6.901976 -6.74826,-10.285331 -2.4166,-3.661735 -4.76655,-7.353708 -7.15024,-11.041657 -2.1436,-3.991599 -5.04144,-7.516572 -7.53313,-11.292438 -2.49015,-3.501231 -4.15491,-7.440716 -6.56262,-10.992633 -1.97102,-3.706844 -4.8109,-6.934065 -6.20012,-10.958527 -1.98544,-3.771884 -3.93072,-7.5620701 -5.71429,-11.4287134 -1.98525,-3.7715405 -3.93029,-7.5613604 -5.71413,-11.4274445 -1.98412,-3.7678831 -3.92838,-7.5536821 -5.71361,-11.4149511 -1.99172,-3.775008 -3.94751,-7.56792 -5.72119,-11.445452 -2.09067,-4.033462 -4.12725,-8.114109 -5.77277,-12.348118 -2.06589,-4.746386 -3.86161,-9.588192 -5.66071,-14.440315 -1.92696,-4.890739 -3.53266,-9.92235 -4.56532,-15.080714 -1.12856,-4.930995 -2.18597,-9.779011 -2.43863,-14.854515 -0.89235,-5.24277 -2.38371,-10.38296 -1.86006,-15.763305 -1.4e-4,-5.70516 -3.9e-4,-11.41031 -6.4e-4,-17.11546 -7e-5,-5.71679 -6e-4,-11.43358 0.006,-17.15037 0.009,-6.30894 0.0269,-12.61786 0.0642,-18.92671 0.0411,-7.96062 0.13692,-15.92504 -0.10664,-23.88321 0,0 37.79989,-19.26001 37.79989,-19.26001 z"
       inkscape:connector-curvature="0" />
    <path
       style="fill:url(#linearGradient5275);fill-opacity:1.0;fill-rule:nonzero;stroke:url(#linearGradient5267);stroke-width:0.05000000000000000;stroke-linecap:round;stroke-linejoin:round;stroke-miterlimit:4;stroke-opacity:1;stroke-dasharray:none;stroke-dashoffset:0"
       id="path3773"
       d="m -534.81927,-33.230195 c 2.53614,6.895297 5.99366,13.384428 8.37788,20.334773 2.17469,4.5752124 3.46648,9.4595828 5.29757,14.1637045 1.70363,4.3070013 3.60542,8.4082096 4.62901,12.9569935 0.77182,4.792364 2.28278,9.391502 3.06812,14.188594 0.18695,4.970414 1.50929,9.731149 2.46268,14.579626 1.7171,4.251247 2.44157,8.776976 3.68566,13.156788 1.11795,4.376545 3.20522,8.367043 4.49889,12.684024 1.80187,4.029347 2.89342,8.289315 4.48816,12.394175 1.38628,4.022173 3.26107,7.863631 5.20219,11.645487 1.98112,4.10804 3.97872,8.19299 5.75129,12.40718 2.13783,4.98517 4.49054,9.88381 6.49998,14.92251 1.90099,4.01563 4.06929,7.90716 5.81973,11.99073 1.38049,4.12575 3.04311,8.15 4.91591,12.07476 2.01576,3.909 3.48056,8.02908 5.174,12.07656 1.59626,4.24812 3.10158,8.53443 4.54603,12.84191 1.45802,4.79899 1.51991,9.81986 2.6792,14.67925 1.36563,5.08944 1.81998,10.33529 2.10396,15.57649 0.23154,5.68237 0.21701,11.37097 0.21862,17.05694 -0.005,5.72094 -0.0139,11.44187 -0.0184,17.1628 -0.20144,5.01369 1.23198,9.87519 1.95715,14.80104 0.68182,5.14277 0.49216,10.31608 1.53263,15.406 1.25188,5.11139 1.72371,10.34589 2.01045,15.5851 0.23712,5.67858 0.22667,11.36362 0.23053,17.04602 -0.003,5.72057 -0.012,11.44114 -0.0164,17.16172 -0.004,5.7152 -0.004,11.43041 -0.005,17.14562 -1.9e-4,5.71425 -8e-5,11.42849 -3e-5,17.14274 5e-5,5.71427 6e-5,11.42854 7e-5,17.14281 0,5.71428 0,11.42857 0,17.14285 0,5.71429 0,11.42857 0,17.14286 0,5.71429 0,11.42857 0,17.14286 0,5.71428 0,11.42857 0,17.14286 0,5.71428 0,11.42857 0,17.14285 0,5.71429 0,11.42857 0,17.14286 0,5.71429 0,11.42857 0,17.14286 0,5.71428 0,11.42857 0,17.14285 0,5.71429 0,11.42858 0,17.14286 0,5.71429 0,11.42857 0,17.14286 0,5.71428 0,11.42857 0,17.14286 0,5.71428 0,11.42857 0,17.14285 0,5.71429 0,11.42857 0,17.14286 0,5.71429 0,11.42857 0,17.14286 0,5.71428 0,11.42857 0,17.14285 0,5.71429 0,11.42858 0,17.14286 0,5.71429 0,11.42857 0,17.14286 0,5.71428 0,11.42857 0,17.14286 0,5.71428 0,11.42857 0,17.14285 0,5.71429 0,11.42857 0,17.14286 0,5.71429 0,11.42857 0,17.14286 0,5.71428 0,11.42857 0,17.14285 0,5.71429 0,11.42858 0,17.14286 0,5.71429 0,11.42857 0,17.14286 0,5.71428 0,11.42857 0,17.14286 0,5.71428 0,11.42857 0,17.14285 0,5.71429 0,11.42857 0,17.14286 0.036,5.34359 -0.3215,10.67069 0.65628,15.94472 1.19436,5.11535 1.68524,10.33661 1.9783,15.56861 0.2448,5.67535 0.237,11.35753 0.24248,17.03696 0.47757,4.54103 1.36391,9.03677 2.85283,13.35291 1.28014,4.03632 3.18535,7.85183 5.13003,11.60556 1.41635,4.00275 4.2071,7.21744 6.19216,10.90906 2.40366,3.31542 3.7891,7.20218 6.27751,10.45807 1.96899,3.54664 5.13999,5.71202 8.17065,8.18494 3.4073,2.31983 6.67873,4.96745 9.53499,7.95456 2.96302,2.77337 5.9934,5.52644 8.69979,8.56158 2.9359,2.79616 5.70232,5.71715 8.76372,8.39086 3.76912,2.64696 7.53689,5.40132 10.82065,8.6469 3.08952,2.73059 6.9198,4.30807 10.3205,6.54326 3.76986,1.77809 6.38876,5.15128 10.05151,7.07462 3.33436,2.33062 6.92064,4.55185 10.74723,5.99638 3.73968,2.30186 7.83763,3.70681 11.32298,6.42791 3.39154,2.37346 7.25594,3.94702 10.7145,6.1839 4.09686,2.34601 8.72288,3.51701 12.92609,5.59801 4.41417,1.5356 8.7148,3.4034 13.19655,4.7539 4.37304,1.3861 8.51709,3.0023 13.11429,3.6541 5.32273,0.5694 10.685,0.5612 16.03155,0.5852 5.71037,0.01 11.42072,-0.014 17.13108,-0.024 5.71968,-0.01 11.43937,-0.01 17.15906,-0.011 5.71468,-6e-4 11.42937,-4e-4 17.14406,-3e-4 5.71423,10e-5 11.42845,10e-5 17.14268,10e-5 5.71428,10e-5 11.42855,10e-5 17.14283,10e-5 5.71428,0 11.42857,0 17.14286,0 5.71428,0 11.42857,0 17.14285,0 5.71429,0 11.42857,0 17.14286,0 5.71429,0 11.42857,0 17.14286,0 5.71428,0 11.42857,0 17.14285,0 5.71429,0 11.428576,0 17.142861,0 5.714286,0 11.428572,0 17.142858,0 5.714285,0 11.428571,0 17.142857,0 5.714285,0 11.428571,0 17.142857,0 5.714286,0 11.428571,0 17.142857,0 5.7142857,0 11.4285714,0 17.1428571,0 5.7142857,0 11.4285719,0 17.1428569,0 0.952381,0 1.904762,0 2.857143,0 0,0 -34.253474,24.8866 -34.253474,24.8866 l 0,0 c -0.952381,0 -1.904762,0 -2.857143,0 -5.714286,0 -11.428571,0 -17.142857,0 -5.714286,0 -11.428572,0 -17.142857,0 -5.714286,0 -11.428572,0 -17.142857,0 -5.714286,0 -11.428572,0 -17.142858,0 -5.714285,0 -11.428571,0 -17.142861,0 -5.71428,0 -11.42857,0 -17.14285,0 -5.71429,0 -11.42857,0 -17.14286,0 -5.71429,0 -11.42857,0 -17.14286,0 -5.71428,0 -11.42857,0 -17.14285,0 -5.71429,0 -11.42858,0 -17.14286,0 -5.71429,0 -11.42857,0 -17.14286,0 -5.71429,0 -11.42857,0 -17.14286,0 -5.71428,0 -11.42856,0 -17.14284,-10e-5 -5.71423,0 -11.42846,-10e-5 -17.1427,-10e-5 -5.71442,-10e-5 -11.42884,-3e-4 -17.14326,0 -5.7182,0 -11.43639,0.01 -17.15458,0.016 -5.72138,0.011 -11.44295,0.036 -17.16422,-0.011 -5.51444,-0.081 -11.0628,-0.152 -16.50647,-1.1349 -4.62238,-1.0161 -8.94949,-2.8157 -13.48314,-4.1408 -4.49044,-1.6538 -9.04128,-3.1604 -13.40619,-5.1254 -4.48823,-1.8106 -9.07945,-3.4548 -13.24723,-5.9565 -3.73021,-1.9954 -7.4207,-4.0795 -10.91041,-6.4771 -3.46033,-2.1823 -7.23969,-3.7533 -10.82789,-5.7065 -3.83091,-1.8895 -7.567,-4.013 -11.07047,-6.4594 -3.39371,-2.30184 -6.36116,-5.21291 -10.0538,-7.08028 -3.79984,-2.11537 -7.55618,-4.3754 -10.7899,-7.3129 -3.38021,-3.06415 -7.05527,-5.77028 -10.70648,-8.49954 -3.17731,-2.75782 -6.03027,-5.83986 -9.04731,-8.76736 -2.77208,-2.90052 -5.67964,-5.67584 -8.61022,-8.41412 -2.88905,-2.74399 -6.00185,-5.24578 -9.26755,-7.52861 -3.41251,-2.59153 -6.45169,-5.51526 -8.76621,-9.16392 -2.48964,-3.49871 -4.15526,-7.43598 -6.56857,-10.98156 -1.98145,-3.70669 -4.83904,-6.92905 -6.22121,-10.96329 -2.03443,-3.93098 -4.04505,-7.92794 -5.40658,-12.14355 -1.67685,-4.76296 -2.67815,-9.6592 -3.42076,-14.65922 4.4e-4,-5.61305 0.0159,-11.22785 -0.16764,-16.83862 -0.22271,-5.0353 -0.57439,-10.07831 -1.73929,-14.99952 -1.15774,-5.53964 -1.09739,-11.0651 -0.97078,-16.71393 0,-5.71429 0,-11.42858 0,-17.14286 0,-5.71429 0,-11.42857 0,-17.14286 0,-5.71428 0,-11.42857 0,-17.14286 0,-5.71428 0,-11.42857 0,-17.14285 0,-5.71429 0,-11.42857 0,-17.14286 0,-5.71429 0,-11.42857 0,-17.14286 0,-5.71428 0,-11.42857 0,-17.14285 0,-5.71429 0,-11.42858 0,-17.14286 0,-5.71429 0,-11.42857 0,-17.14286 0,-5.71428 0,-11.42857 0,-17.14286 0,-5.71428 0,-11.42857 0,-17.14285 0,-5.71429 0,-11.42857 0,-17.14286 0,-5.71429 0,-11.42857 0,-17.14286 0,-5.71428 0,-11.42857 0,-17.14285 0,-5.71429 0,-11.42858 0,-17.14286 0,-5.71429 0,-11.42857 0,-17.14286 0,-5.71428 0,-11.42857 0,-17.14286 0,-5.71428 0,-11.42857 0,-17.14285 0,-5.71429 0,-11.42857 0,-17.14286 0,-5.71429 0,-11.42857 0,-17.14286 0,-5.71428 0,-11.42857 0,-17.14285 0,-5.71429 0,-11.42858 0,-17.14286 0,-5.71429 0,-11.42857 0,-17.14286 0,-5.71428 0,-11.42857 0,-17.14286 0,-5.71428 0,-11.42857 0,-17.14285 0,-5.71429 0,-11.42857 0,-17.14286 0,-5.71428 0,-11.42857 0,-17.14285 -10e-6,-5.71426 -2e-5,-11.42852 -6e-5,-17.14278 -5e-5,-5.71432 -1.4e-4,-11.42864 -5e-5,-17.14296 2.2e-4,-5.71611 4.3e-4,-11.43221 0.004,-17.14831 0.004,-5.71936 0.011,-11.43872 0.0177,-17.15808 0.002,-5.61742 0.019,-11.2365 -0.15733,-16.85183 -0.21531,-5.01854 -0.54414,-10.05069 -1.74143,-14.94874 -1.16226,-5.19495 -1.24512,-10.39337 -1.65756,-15.68953 -0.6721,-5.13249 -2.24089,-10.15982 -2.17578,-15.35174 0.004,-5.72019 0.011,-11.44038 0.0192,-17.16057 0.004,-5.62148 0.024,-11.24457 -0.146,-16.86414 -0.20913,-4.97881 -0.51096,-9.98099 -1.78167,-14.82364 -1.20137,-4.76899 -1.45669,-9.59761 -2.54023,-14.38736 -1.34649,-4.21423 -2.9207,-8.34618 -4.3822,-12.51457 -1.71666,-3.96788 -3.04193,-8.08933 -5.09219,-11.91759 -1.89839,-3.98367 -3.6574,-8.04929 -5.00438,-12.25241 -1.70562,-4.14355 -3.96282,-8.04327 -5.82469,-12.12008 -1.90551,-5.03404 -4.23211,-9.91603 -6.43875,-14.82074 -1.73864,-4.11075 -3.76445,-8.06664 -5.66089,-12.09341 -2.00479,-3.91087 -3.96627,-7.88026 -5.40379,-12.03425 -1.6467,-4.230183 -2.7753,-8.601039 -4.65961,-12.743757 -1.17988,-4.338321 -3.39035,-8.256735 -4.473,-12.629931 -1.41915,-4.479379 -1.90451,-9.235522 -3.8762,-13.568031 -0.88817,-4.912492 -2.46099,-9.681643 -2.52295,-14.716132 -0.67058,-4.753539 -2.19972,-9.260515 -2.97563,-13.974726 -0.83889,-4.37817 -2.71031,-8.222228 -4.31898,-12.338906 -1.84393,-4.791587 -3.12207,-9.749379 -5.24713,-14.4413036 -2.13497,-6.80787978 -5.37372,-13.1896323 -8.22777,-19.7104154 0,0 36.88231,-21.000203 36.88231,-21.000203 z"
       inkscape:connector-curvature="0" />
    <path
       style="fill:url(#linearGradient5283);fill-opacity:1.0;fill-rule:nonzero;stroke:url(#linearGradient5259);stroke-width:0.05000000000000000;stroke-linecap:round;stroke-linejoin:round;stroke-miterlimit:4;stroke-opacity:1;stroke-dasharray:none;stroke-dashoffset:0"
       id="path3779"
       d="m -660.27348,-202.37522 c 6.97584,2.36403 14.21034,3.73273 21.51044,4.57533 6.06492,0.59293 12.16417,0.608 18.25171,0.62336 5.36536,-0.56902 10.43265,1.13311 15.66355,1.96468 5.24015,0.70191 10.5358,0.76971 15.81383,0.8387 5.68581,0.0455 11.37189,0.0273 17.05782,0.0198 5.71929,-0.008 11.43858,-0.0109 17.15787,-0.0125 5.71504,-0.001 11.43009,-0.001 17.14513,-0.001 5.71426,4e-5 11.42851,9e-5 17.14277,1.2e-4 5.71427,2e-5 11.42854,2e-5 17.14281,3e-5 5.71429,0 11.42857,0 17.14286,0 5.71428,0 11.42857,0 17.14286,0 5.71428,0 11.42857,0 17.14285,0 5.71429,0 11.42857,0 17.14286,0 5.71429,0 11.42857,0 17.14286,0 5.71428,0 11.42857,0 17.14285,0 5.71429,0 11.42858,0 17.14286,0 5.71429,0 11.42857,0 17.14286,0 5.71428,0 11.42857,0 17.14286,0 5.71428,0 11.42857,0 17.14285,0 5.71429,0 11.42857,0 17.14286,0 5.71429,0 11.42857,0 17.14286,0 5.71428,0 11.42857,0 17.14285,0 5.71429,0 11.42858,0 17.14286,0 5.71429,0 11.42857,0 17.14286,0 5.41995,0.64255 10.40122,-0.58166 15.62869,-1.65653 5.23331,-0.92929 10.5598,-1.05623 15.86003,-1.16686 5.68791,-0.0791 11.37661,-0.0586 17.0649,-0.051 5.71952,0.009 11.43905,0.0133 17.15857,0.0156 5.71504,0.002 11.43007,0.002 17.1451,0.002 5.71425,-3e-5 11.4285,-1e-4 17.14275,-1.3e-4 5.71427,-3e-5 11.42854,-4e-5 17.14282,-4e-5 5.71428,0 11.42857,0 17.14285,0 5.71429,0 11.42857,0 17.14286,0 5.714286,0 11.428571,0 17.142857,0 5.714286,0 11.428572,0 17.142857,0 5.714286,0 11.428572,0 17.142857,0 5.714286,0 11.428572,0 17.142858,0 5.714285,0 11.428571,0 17.1428567,0 5.7142857,0 11.4285714,0 17.1428571,0 5.7142862,0 11.4285712,0 17.1428572,0 5.714286,0 11.428571,0 17.142857,0 5.714286,0 11.428572,0 17.142857,0 5.714286,0 11.428572,0 17.142857,0 4.761905,0 9.52381,0 14.285715,0 0,0 -34.253475,24.88661 -34.253475,24.88661 l 0,0 c -4.761904,0 -9.523809,0 -14.285714,0 -5.714286,0 -11.428571,0 -17.142857,0 -5.714286,0 -11.428571,0 -17.1428571,0 -5.7142857,0 -11.4285715,0 -17.1428572,0 -5.7142857,0 -11.4285717,0 -17.1428567,0 -5.714286,0 -11.428572,0 -17.142858,0 -5.714285,0 -11.428571,0 -17.142857,0 -5.714285,0 -11.428571,0 -17.142857,0 -5.714286,0 -11.428571,0 -17.142857,0 -5.71429,0 -11.42857,0 -17.14286,0 -5.71428,0 -11.42857,0 -17.14285,0 -5.71429,0 -11.42858,0 -17.14286,0 -5.71429,0 -11.42857,0 -17.14286,0 -5.71426,1e-5 -11.42853,2e-5 -17.1428,6e-5 -5.71427,4e-5 -11.42854,1.4e-4 -17.14282,1e-5 -5.71538,-2.4e-4 -11.43076,-5.1e-4 -17.14614,-0.004 -5.71959,-0.004 -11.43918,-0.0109 -17.15877,-0.016 -5.66523,4.1e-4 -11.33226,-0.0136 -16.99512,0.17466 -5.19796,0.23209 -10.40073,0.60634 -15.4879,1.7709 -5.32169,1.05678 -10.65315,1.06797 -16.06931,0.9312 -5.71428,0 -11.42857,0 -17.14285,0 -5.71429,0 -11.42857,0 -17.14286,0 -5.71429,0 -11.42857,0 -17.14286,0 -5.71428,0 -11.42857,0 -17.14285,0 -5.71429,0 -11.42858,0 -17.14286,0 -5.71429,0 -11.42857,0 -17.14286,0 -5.71428,0 -11.42857,0 -17.14286,0 -5.71428,0 -11.42857,0 -17.14285,0 -5.71429,0 -11.42857,0 -17.14286,0 -5.71429,0 -11.42857,0 -17.14286,0 -5.71428,0 -11.42857,0 -17.14285,0 -5.71429,0 -11.42858,0 -17.14286,0 -5.71429,0 -11.42857,0 -17.14286,0 -5.71428,0 -11.42857,0 -17.14286,0 -5.71428,0 -11.42857,0 -17.14285,0 -5.71428,0 -11.42856,-1e-5 -17.14283,-4e-5 -5.71425,-4e-5 -11.42849,-1.1e-4 -17.14273,-9e-5 -5.71469,9e-5 -11.42938,1.3e-4 -17.14407,0.002 -5.71861,0.003 -11.43723,0.007 -17.15584,0.0147 -5.70629,0.005 -11.41325,0.022 -17.1188,-0.0853 -5.43104,-0.1449 -10.88033,-0.35257 -16.23823,-1.32856 -5.04522,-0.95041 -10.02134,-1.85313 -15.1954,-1.44577 -6.17147,-0.0867 -12.35636,-0.24709 -18.47693,-1.11687 -7.3151,-1.12875 -14.44626,-3.00403 -21.68598,-4.49121 0,0 34.66835,-24.44405 34.66835,-24.44405 z"
       inkscape:connector-curvature="0" />
  </g>
</svg>
